<svg xmlns="http://www.w3.org/2000/svg" version="1.1" xmlns:xlink="http://www.w3.org/1999/xlink" xmlns:svgjs="http://svgjs.dev/svgjs" width="1000" height="636" viewBox="0 0 1000 636"><g transform="matrix(1,0,0,1,-0.09625950387925286,0.2574898785425148)"><svg viewBox="0 0 388 247" data-background-color="#050816" preserveAspectRatio="xMidYMid meet" height="636" width="1000" xmlns="http://www.w3.org/2000/svg" xmlns:xlink="http://www.w3.org/1999/xlink"><g id="tight-bounds" transform="matrix(1,0,0,1,0.037350107675507616,-0.09999999999999432)"><svg viewBox="0 0 387.9253012048193 247.2" height="247.2" width="387.9253012048193"><g><svg viewBox="0 0 387.9253012048193 247.2" height="247.2" width="387.9253012048193"><g><svg viewBox="0 0 387.9253012048193 247.2" height="247.2" width="387.9253012048193"><g id="textblocktransform"><svg viewBox="0 0 387.9253012048193 247.2" height="247.2" width="387.9253012048193" id="textblock"><g><svg viewBox="0 0 387.9253012048193 247.2" height="247.2" width="387.9253012048193"><g transform="matrix(1,0,0,1,0,0)"><svg width="387.9253012048193" viewBox="4.050000190734863 -33 52.10000228881836 33.20000076293945" height="247.2" data-palette-color="#ffffff"><path d="M14.45 0.2L11.25 0.2 6.3-29.5Q6-31.35 4.25-32.4L4.25-32.4 4.05-32.5 4.15-33 15.9-33 15.85-32.5 15.2-32.25Q13.3-31.4 13.6-29.5L13.6-29.5 16.85-7 28.2-29.65Q29.15-31.65 27.1-32.35L27.1-32.35 26.6-32.5 26.7-33 33.5-33 33.4-32.5 32.85-32.35Q30.6-31.55 29.5-29.4L29.5-29.4 14.45 0.2ZM54.05 0L30.25 0 30.3-0.5 31.3-0.85Q33.05-1.45 33.4-3.25L33.4-3.25 36.1-17.5Q36.6-20.15 37.17-23.43 37.75-26.7 38.25-29.6L38.25-29.6Q38.55-31.4 36.8-32.25L36.8-32.25 36.15-32.5 36.25-33 48.6-33 48.55-32.5 47.3-32.1Q45.5-31.45 45.15-29.6L45.15-29.6 42.45-15.55Q42.05-13.45 41.6-10.88 41.15-8.3 40.7-5.73 40.25-3.15 39.9-1L39.9-1 45.25-1Q47.4-1 48.92-1.78 50.45-2.55 51.7-4.25L51.7-4.25 55.65-9.7 56.15-9.7 54.05 0Z" opacity="1" transform="matrix(1,0,0,1,0,0)" fill="#ffffff" class="wordmark-text-0" data-fill-palette-color="primary" id="text-0"></path></svg></g></svg></g></svg></g></svg></g><g></g></svg></g><defs></defs></svg><rect width="387.9253012048193" height="247.2" fill="none" stroke="none" visibility="hidden"></rect></g></svg></g></svg>